<svg id="visual" viewBox="0 0 900 600" width="900" height="600" xmlns="http://www.w3.org/2000/svg" xmlns:xlink="http://www.w3.org/1999/xlink" version="1.1"><rect x="0" y="0" width="900" height="600" fill="#E4E9F7"></rect><path d="M0 552L21.5 546.3C43 540.7 86 529.3 128.8 528.2C171.7 527 214.3 536 257.2 544.3C300 552.7 343 560.3 385.8 561C428.7 561.7 471.3 555.3 514.2 551.3C557 547.3 600 545.7 642.8 545.8C685.7 546 728.3 548 771.2 544.8C814 541.7 857 533.3 878.5 529.2L900 525L900 601L878.5 601C857 601 814 601 771.2 601C728.3 601 685.7 601 642.8 601C600 601 557 601 514.2 601C471.3 601 428.7 601 385.8 601C343 601 300 601 257.2 601C214.3 601 171.7 601 128.8 601C86 601 43 601 21.5 601L0 601Z" fill="#F6f5FF" stroke-linecap="round" stroke-linejoin="miter"></path></svg>